<svg xmlns="http://www.w3.org/2000/svg" xmlns:xlink="http://www.w3.org/1999/xlink" viewBox="0 0 64 64"><defs><linearGradient id="b" x1="14.95" x2="46.81" y1="41.68" y2="9.82" gradientUnits="userSpaceOnUse"><stop offset="0" stop-color="#54a5ff"/><stop offset="1" stop-color="#8ad3fe"/></linearGradient><linearGradient id="a" x1="32" x2="32" y1="60" y2="48" gradientUnits="userSpaceOnUse"><stop offset="0" stop-color="#d3e6f5"/><stop offset="1" stop-color="#f0f7fc"/></linearGradient><linearGradient id="d" y1="48" y2="36" xlink:href="#a"/><linearGradient id="e" y1="36" y2="24" xlink:href="#a"/><linearGradient id="c" x1="17" x2="21" y1="54" y2="54" gradientUnits="userSpaceOnUse"><stop offset="0" stop-color="#fe9661"/><stop offset="1" stop-color="#ffb369"/></linearGradient><linearGradient id="f" x1="23" x2="27" y1="54" y2="54" xlink:href="#b"/><linearGradient id="g" y1="30" y2="30" xlink:href="#c"/><linearGradient id="h" x1="23" x2="27" y1="30" y2="30" xlink:href="#b"/><linearGradient id="i" y1="42" y2="42" xlink:href="#c"/><linearGradient id="j" x1="23" x2="27" y1="42" y2="42" xlink:href="#b"/></defs><g data-name="Cloud data"><path fill="url(#b)" d="M59.83,24.14a7,7,0,0,0-5-3.09,11,11,0,0,0-.66-2.41A11.93,11.93,0,0,0,43,11a12.21,12.21,0,0,0-3.81.62,16,16,0,0,0-30.1,5.89,8.77,8.77,0,0,0-1.68.75l-.12.07a9.1,9.1,0,0,0-3,3,.54.54,0,0,0-.07.13A9,9,0,0,0,12,35H54a7,7,0,0,0,5.17-2.3s0,0,0,0A6.91,6.91,0,0,0,61,28,6.83,6.83,0,0,0,59.83,24.14Z"/><rect width="38" height="12" x="13" y="48" fill="url(#a)" rx="3" ry="3"/><rect width="38" height="12" x="13" y="36" fill="url(#d)" rx="3" ry="3"/><rect width="38" height="12" x="13" y="24" fill="url(#e)" rx="3" ry="3"/><circle cx="19" cy="54" r="2" fill="url(#c)"/><circle cx="25" cy="54" r="2" fill="url(#f)"/><path fill="url(#g)" d="M19,32a2,2,0,1,1,2-2A2,2,0,0,1,19,32Zm0-2Z"/><path fill="url(#h)" d="M25,32a2,2,0,1,1,2-2A2,2,0,0,1,25,32Zm0-2Z"/><circle cx="19" cy="42" r="2" fill="url(#i)"/><circle cx="25" cy="42" r="2" fill="url(#j)"/></g></svg>